<?xml version="1.0" encoding="UTF-8"?>
<svg id="Layer_1" data-name="Layer 1" xmlns="http://www.w3.org/2000/svg" xmlns:xlink="http://www.w3.org/1999/xlink" viewBox="0 0 960 960">
  <defs>
    <style>
      .cls-1 {
        fill: #39cefd;
      }

      .cls-2 {
        fill: #16b9fd;
      }

      .cls-3 {
        clip-path: url(#clippath-2);
      }

      .cls-4 {
        clip-path: url(#clippath-1);
      }

      .cls-5 {
        clip-path: url(#clippath-4);
      }

      .cls-6 {
        fill: url(#radial-gradient);
      }

      .cls-7 {
        fill: #03569b;
      }

      .cls-8 {
        clip-path: url(#clippath);
      }

      .cls-9 {
        fill: none;
      }

      .cls-10 {
        clip-path: url(#clippath-3);
      }

      .cls-11 {
        fill: #3a3939;
      }

      .cls-12 {
        fill: url(#linear-gradient);
      }
    </style>
    <clipPath id="clippath">
      <path class="cls-9" d="m279.56,469.13l-85.27,85.3,85.27,85.3h-97.44l-36.56-36.57-48.73-48.73,85.3-85.3h97.44Zm-97.44-146.17L23.75,481.33l48.73,48.73,207.07-207.1s-97.44,0-97.44,0Z"/>
    </clipPath>
    <clipPath id="clippath-1">
      <path class="cls-9" d="m279.56,469.13l-85.27,85.3,85.27,85.3h-97.44l-36.56-36.57-48.73-48.73,85.3-85.3h97.44Zm-97.44-146.17L23.75,481.33l48.73,48.73,207.07-207.1s-97.44,0-97.44,0Z"/>
    </clipPath>
    <clipPath id="clippath-2">
      <path class="cls-9" d="m279.56,469.13l-85.27,85.3,85.27,85.3h-97.44l-36.56-36.57-48.73-48.73,85.3-85.3h97.44Zm-97.44-146.17L23.75,481.33l48.73,48.73,207.07-207.1s-97.44,0-97.44,0Z"/>
    </clipPath>
    <clipPath id="clippath-3">
      <path class="cls-9" d="m279.56,469.13l-85.27,85.3,85.27,85.3h-97.44l-36.56-36.57-48.73-48.73,85.3-85.3h97.44Zm-97.44-146.17L23.75,481.33l48.73,48.73,207.07-207.1s-97.44,0-97.44,0Z"/>
    </clipPath>
    <linearGradient id="linear-gradient" x1="-8017.37" y1="3706.2" x2="-7966.26" y2="3757.3" gradientTransform="matrix(0, 0, 0, 0, -960.18, -387.75)" gradientUnits="userSpaceOnUse">
      <stop offset="0" stop-color="#1a237e" stop-opacity=".4"/>
      <stop offset="1" stop-color="#1a237e" stop-opacity="0"/>
    </linearGradient>
    <clipPath id="clippath-4">
      <path class="cls-9" d="m279.56,469.13l-85.27,85.3,85.27,85.3h-97.44l-36.56-36.57-48.73-48.73,85.3-85.3h97.44Zm-97.44-146.17L23.75,481.33l48.73,48.73,207.07-207.1s-97.44,0-97.44,0Z"/>
    </clipPath>
    <radialGradient id="radial-gradient" cx="151.66" cy="481.35" fx="151.66" fy="481.35" r="143.95" gradientTransform="matrix(0, 0, 0, 0, -960.18, -387.75)" gradientUnits="userSpaceOnUse">
      <stop offset="0" stop-color="#fff" stop-opacity=".1"/>
      <stop offset="1" stop-color="#fff" stop-opacity="0"/>
    </radialGradient>
  </defs>
  <g>
    <g class="cls-8">
      <path class="cls-1" d="m145.56,603.16l134-134.03h-97.44l-85.27,85.3,48.7,48.73Z"/>
    </g>
    <g class="cls-4">
      <path class="cls-1" d="m23.75,481.33l158.37-158.37h97.44l-207.07,207.1-48.73-48.73Z"/>
    </g>
    <g class="cls-3">
      <path class="cls-7" d="m182.12,639.7h97.44l-85.27-85.27-48.73,48.73,36.56,36.53Z"/>
    </g>
    <g class="cls-10">
      <path class="cls-12" d="m194.29,554.43l-48.73,48.73,72.28-25.04-23.54-23.7Z"/>
    </g>
    <g class="cls-5">
      <path class="cls-2" d="m96.85,554.4l48.73-48.73,48.73,48.73-48.73,48.76-48.73-48.76Z"/>
    </g>
    <path class="cls-6" d="m279.56,469.13l-85.27,85.3,85.27,85.3h-97.44l-36.56-36.57-48.73-48.73,85.3-85.3h97.44Zm-97.44-146.17L23.75,481.33l48.73,48.73,207.07-207.1s-97.44,0-97.44,0Z"/>
  </g>
  <g>
    <path class="cls-11" d="m349.86,401.77h85.4v16.27h-67.5v50.42h61v16.27h-61v63.44h-17.08v-146.39h-.81Z"/>
    <path class="cls-11" d="m455.59,401.77h17.08v147.21h-17.08v-147.21Z"/>
    <path class="cls-11" d="m536.92,552.23c-13.01,0-21.96-4.07-29.28-11.39-6.51-7.32-9.76-17.89-9.76-30.91v-65.88h17.08v63.44c0,9.76,2.44,17.08,6.51,21.96,4.88,4.88,10.57,7.32,18.71,7.32,5.69,0,11.39-1.63,15.45-4.88,4.88-3.25,8.13-7.32,10.57-12.2,2.44-4.88,4.07-10.57,4.07-16.27v-59.37h17.08v104.92h-16.27v-15.45h-.81c-3.25,4.88-7.32,9.76-13.83,13.01-5.69,4.07-12.2,5.69-19.52,5.69Z"/>
    <path class="cls-11" d="m655.66,550.6c-4.07,0-8.13-.81-12.2-2.44-3.25-1.63-6.51-3.25-8.95-5.69-2.44-2.44-4.88-5.69-6.51-8.95s-2.44-7.32-2.44-12.2v-61.81h-18.71v-15.45h18.71v-29.28h17.08v29.28h25.21v15.45h-25.21v56.93c0,5.69.81,9.76,3.25,13.01,2.44,3.25,6.51,4.88,11.39,4.88,4.07,0,8.13-.81,11.39-3.25v17.08c-2.44.81-4.07,1.63-6.51,2.44,0,0-3.25,0-6.51,0Z"/>
    <path class="cls-11" d="m729.67,550.6c-4.07,0-8.13-.81-12.2-2.44-3.25-1.63-6.51-3.25-8.95-5.69-2.44-2.44-4.88-5.69-6.51-8.95s-2.44-7.32-2.44-12.2v-61.81h-17.08v-15.45h18.71v-29.28h17.08v29.28h25.21v15.45h-25.21v56.93c0,5.69.81,9.76,3.25,13.01,2.44,3.25,6.51,4.88,11.39,4.88,4.07,0,8.13-.81,11.39-3.25v17.08c-2.44.81-4.07,1.63-6.51,2.44-1.63,0-4.88,0-8.13,0Z"/>
    <path class="cls-11" d="m806.93,552.23c-9.76,0-18.71-2.44-26.84-7.32-8.13-4.88-13.83-11.39-18.71-19.52-4.07-8.13-6.51-17.89-6.51-28.47,0-9.76,2.44-19.52,6.51-27.65,4.07-8.13,10.57-15.45,17.89-20.33,7.32-4.88,16.27-7.32,26.84-7.32s19.52,2.44,26.84,7.32c7.32,4.88,13.01,10.57,17.08,18.71,4.07,8.13,6.51,17.08,6.51,27.65,0,2.44,0,4.07-.81,5.69h-83.77c.81,8.13,2.44,14.64,5.69,20.33,3.25,5.69,8.13,9.76,13.01,12.2,5.69,2.44,10.57,4.07,16.27,4.07,13.83,0,23.59-6.51,30.91-18.71l14.64,7.32c-4.88,8.13-10.57,15.45-18.71,20.33-6.51,3.25-15.45,5.69-26.84,5.69h0Zm30.09-66.69c0-4.07-1.63-8.95-4.07-13.01-2.44-4.07-5.69-8.13-10.57-11.39-4.88-3.25-10.57-4.88-17.89-4.88-8.13,0-15.45,2.44-21.15,8.13-5.69,4.88-8.95,12.2-11.39,21.15h65.06Z"/>
    <path class="cls-11" d="m876.06,444.06h16.27v17.08h.81c2.44-5.69,5.69-10.57,12.2-13.83,5.69-4.07,12.2-5.69,18.71-5.69,4.88,0,8.95.81,12.2,2.44v18.71c-4.07-2.44-8.95-3.25-14.64-3.25-4.88,0-9.76,1.63-13.83,4.07-4.07,3.25-7.32,6.51-10.57,11.39-2.44,4.88-4.07,9.76-4.07,15.45v58.56h-17.08v-104.92Z"/>
  </g>
</svg>